<svg xmlns="http://www.w3.org/2000/svg" width="17" height="17" viewBox="0 0 17 17">
  <g id="Behance_black" transform="translate(0.344 0.474)">
    <path id="Combined-Shape" d="M8.5,17A8.5,8.5,0,0,1,5.191.668a8.5,8.5,0,0,1,6.617,15.664A8.446,8.446,0,0,1,8.5,17ZM10.975,7a2.026,2.026,0,0,0-1.482.567,2.21,2.21,0,0,0-.57,1.63,1.973,1.973,0,0,0,.633,1.636,2.281,2.281,0,0,0,1.459.5,2.037,2.037,0,0,0,1.559-.6,1.343,1.343,0,0,0,.4-.739H11.869a.892.892,0,0,1-.223.281.93.93,0,0,1-.6.187,1.119,1.119,0,0,1-.6-.154.983.983,0,0,1-.434-.862h3.019A5.211,5.211,0,0,0,13,8.64a1.985,1.985,0,0,0-.331-.845,1.673,1.673,0,0,0-.715-.6A2.4,2.4,0,0,0,10.975,7ZM3.967,5.667v5.527H6.491a3.985,3.985,0,0,0,.792-.074,1.568,1.568,0,0,0,.633-.278,1.544,1.544,0,0,0,.4-.435,1.6,1.6,0,0,0,.25-.881,1.455,1.455,0,0,0-.218-.81A1.262,1.262,0,0,0,7.7,8.228a1.348,1.348,0,0,0,.428-.315A1.225,1.225,0,0,0,8.383,7.1a1.4,1.4,0,0,0-.257-.843,1.735,1.735,0,0,0-1.452-.589Zm5.794.258v.688h2.4V5.924Z" transform="translate(-0.344 -0.474)" fill="#fff"/>
    <path id="Combined-Shape-2" data-name="Combined-Shape" d="M1.266,3.357H0V1.985H1.284a1.34,1.34,0,0,1,.521.087.554.554,0,0,1,.332.552.65.65,0,0,1-.343.642A1.253,1.253,0,0,1,1.266,3.357ZM6.349,1.972H4.611a1.034,1.034,0,0,1,.269-.589.809.809,0,0,1,.6-.217.9.9,0,0,1,.6.2.835.835,0,0,1,.268.6ZM1.268,1.135H0V0H1.135a2.007,2.007,0,0,1,.617.08.463.463,0,0,1,.28.475.486.486,0,0,1-.212.451A1.065,1.065,0,0,1,1.268,1.135Z" transform="translate(5.114 6.531)" fill="#fff"/>
  </g>
</svg>
