<svg xmlns="http://www.w3.org/2000/svg" width="19.662" height="19.657" viewBox="0 0 19.662 19.657">
  <path id="Icon_awesome-instagram" data-name="Icon awesome-instagram" d="M9.828,7.027a5.04,5.04,0,1,0,5.04,5.04A5.032,5.032,0,0,0,9.828,7.027Zm0,8.317A3.277,3.277,0,1,1,13.1,12.067a3.283,3.283,0,0,1-3.277,3.277ZM16.25,6.82a1.176,1.176,0,1,1-1.176-1.176A1.173,1.173,0,0,1,16.25,6.82Zm3.338,1.193A5.818,5.818,0,0,0,18,3.895a5.856,5.856,0,0,0-4.119-1.588c-1.623-.092-6.487-.092-8.11,0A5.847,5.847,0,0,0,1.652,3.89,5.837,5.837,0,0,0,.064,8.009c-.092,1.623-.092,6.487,0,8.11a5.818,5.818,0,0,0,1.588,4.119A5.863,5.863,0,0,0,5.77,21.826c1.623.092,6.487.092,8.11,0A5.817,5.817,0,0,0,18,20.238a5.856,5.856,0,0,0,1.588-4.119c.092-1.623.092-6.483,0-8.106Zm-2.1,9.847a3.317,3.317,0,0,1-1.869,1.869c-1.294.513-4.364.395-5.794.395s-4.5.114-5.794-.395a3.317,3.317,0,0,1-1.869-1.869c-.513-1.294-.395-4.364-.395-5.794s-.114-4.5.395-5.794A3.317,3.317,0,0,1,4.033,4.4C5.327,3.89,8.4,4.009,9.828,4.009s4.5-.114,5.794.395a3.317,3.317,0,0,1,1.869,1.869c.513,1.294.395,4.364.395,5.794S18,16.571,17.491,17.861Z" transform="translate(0.005 -2.238)" fill="#3340ff"/>
</svg>
