<svg xmlns="http://www.w3.org/2000/svg" width="14.423" height="14.42" viewBox="0 0 14.423 14.42">
  <path id="Icon_awesome-instagram" data-name="Icon awesome-instagram" d="M7.208,5.751a3.7,3.7,0,1,0,3.7,3.7A3.691,3.691,0,0,0,7.208,5.751Zm0,6.1a2.4,2.4,0,1,1,2.4-2.4,2.408,2.408,0,0,1-2.4,2.4ZM11.919,5.6a.862.862,0,1,1-.862-.862A.86.86,0,0,1,11.919,5.6Zm2.449.875A4.268,4.268,0,0,0,13.2,3.453a4.3,4.3,0,0,0-3.021-1.165c-1.191-.068-4.759-.068-5.949,0A4.289,4.289,0,0,0,1.21,3.45,4.281,4.281,0,0,0,.045,6.471c-.068,1.191-.068,4.759,0,5.95A4.268,4.268,0,0,0,1.21,15.442a4.3,4.3,0,0,0,3.021,1.165c1.191.068,4.759.068,5.949,0A4.267,4.267,0,0,0,13.2,15.442a4.3,4.3,0,0,0,1.165-3.021c.068-1.191.068-4.756,0-5.946ZM12.829,13.7a2.433,2.433,0,0,1-1.371,1.371,15.892,15.892,0,0,1-4.251.29,16.016,16.016,0,0,1-4.251-.29A2.433,2.433,0,0,1,1.587,13.7,15.892,15.892,0,0,1,1.3,9.448,16.016,16.016,0,0,1,1.587,5.2,2.433,2.433,0,0,1,2.957,3.826a15.892,15.892,0,0,1,4.251-.29,16.016,16.016,0,0,1,4.251.29A2.433,2.433,0,0,1,12.829,5.2a15.892,15.892,0,0,1,.29,4.251A15.883,15.883,0,0,1,12.829,13.7Z" transform="translate(0.005 -2.238)" fill="#fff"/>
</svg>
