<?xml version="1.0" encoding="utf-8"?>
<!-- Generator: Adobe Illustrator 23.1.1, SVG Export Plug-In . SVG Version: 6.00 Build 0)  -->
<svg version="1.1" id="Layer_1" xmlns="http://www.w3.org/2000/svg" xmlns:xlink="http://www.w3.org/1999/xlink" x="0px" y="0px"
	 viewBox="0 0 206.7 74.4" style="enable-background:new 0 0 206.7 74.4;" xml:space="preserve">
<style type="text/css">
	.st0{fill:#3340FF;}
	.st1{enable-background:new    ;}
	.st2{fill:#121212;}
	.st3{fill:none;stroke:#000000;stroke-miterlimit:10;}
</style>
<g id="Group_21" transform="translate(-544 -357.579)">
	<g id="Group_19" transform="translate(545 356.579)">
		<g id="Ellipse_66">
			<ellipse class="st0" cx="194.7" cy="12" rx="11" ry="11"/>
		</g>
		<g class="st1">
			<path class="st2" d="M9.6,12.1l9.6,12.7l9.6-12.7h6.2v32.7h-6.4V22.5l-9.2,11.8h-0.2L9.9,22.5v22.3H3.5V12.1H9.6z"/>
			<path class="st2" d="M45.3,44.7h-7L50,12.1h7.6l11.7,32.7h-6.7l-2-5.6H47.3L45.3,44.7z M54.1,20.3l-0.1,0l-4.5,12.7h9.1
				L54.1,20.3z"/>
			<path class="st2" d="M79.8,23.2v21.6h-6.5V12.1H80l14.3,21.7V12.1h6.5v32.7h-6.8L79.8,23.2z"/>
			<path class="st2" d="M118.9,39.4c1.8,0,3.2-0.3,4.2-1c1-0.7,1.5-1.6,1.5-2.8c0-0.9-0.3-1.6-1-2.1c-0.6-0.6-1.5-1-2.5-1.3
				c-1-0.3-2.2-0.6-3.4-0.9c-1.2-0.3-2.5-0.7-3.7-1c-1.3-0.3-2.4-0.9-3.4-1.5c-1-0.7-1.9-1.6-2.5-2.9c-0.6-1.2-1-2.7-1-4.4
				c0-2.9,1.1-5.2,3.2-7.2c2.1-1.9,5-2.9,8.7-2.9c3.7,0,6.6,1,8.8,3.1c2.2,2.1,3.3,4.7,3.4,7.8h-6.6c-0.1-1.5-0.6-2.7-1.6-3.6
				c-1-0.9-2.4-1.4-4.1-1.4c-1.6,0-2.8,0.3-3.8,1c-1,0.7-1.4,1.5-1.4,2.6c0,0.9,0.3,1.6,1,2.1s1.5,1,2.5,1.2c1,0.3,2.2,0.6,3.4,1
				c1.2,0.3,2.5,0.7,3.8,1.1s2.4,0.9,3.5,1.5c1,0.7,1.9,1.7,2.5,2.9s1,2.8,1,4.6c0,2.9-1.2,5.3-3.6,7.2c-2.4,1.9-5.5,2.8-9.4,2.8
				c-2.2,0-4.1-0.3-5.8-0.9c-1.7-0.6-3-1.5-3.9-2.6c-1-1.1-1.7-2.2-2.1-3.5c-0.5-1.3-0.7-2.6-0.8-4h6.6c0.1,1.4,0.7,2.6,1.7,3.6
				C115.3,38.9,116.9,39.4,118.9,39.4z"/>
			<path class="st2" d="M160.6,41.8c-2.6,2.4-5.9,3.6-9.9,3.6s-7.3-1.2-9.9-3.6c-2.6-2.4-4-5.9-4-10.5V12.1h6.7v19.4
				c0,2.4,0.6,4.3,1.8,5.7s3,2.1,5.4,2.1s4.2-0.7,5.4-2.1c1.2-1.4,1.8-3.3,1.8-5.7V12.1h6.7v19.2C164.5,35.9,163.2,39.4,160.6,41.8z
				"/>
			<path class="st2" d="M198.4,44.7h-7.8l-6.1-12.4h-6.4v12.4h-6.7V12.1h14.8c3.5,0,6.1,0.9,8.1,2.8c1.9,1.9,2.9,4.3,2.9,7.4
				c0,2.2-0.5,4.1-1.5,5.8c-1,1.6-2.4,2.8-4.3,3.6L198.4,44.7z M189.3,25.2c0.7-0.7,1.1-1.6,1.1-2.9c0-1.2-0.4-2.2-1.1-2.9
				c-0.7-0.7-1.8-1.1-3.1-1.1h-8.1v8h8.1C187.5,26.2,188.6,25.8,189.3,25.2z"/>
		</g>
		<g class="st1">
			<path class="st3" d="M9.6,12.1l9.6,12.7l9.6-12.7h6.2v32.7h-6.4V22.5l-9.2,11.8h-0.2L9.9,22.5v22.3H3.5V12.1H9.6z"/>
			<path class="st3" d="M45.3,44.7h-7L50,12.1h7.6l11.7,32.7h-6.7l-2-5.6H47.3L45.3,44.7z M54.1,20.3l-0.1,0l-4.5,12.7h9.1
				L54.1,20.3z"/>
			<path class="st3" d="M79.8,23.2v21.6h-6.5V12.1H80l14.3,21.7V12.1h6.5v32.7h-6.8L79.8,23.2z"/>
			<path class="st3" d="M118.9,39.4c1.8,0,3.2-0.3,4.2-1c1-0.7,1.5-1.6,1.5-2.8c0-0.9-0.3-1.6-1-2.1c-0.6-0.6-1.5-1-2.5-1.3
				c-1-0.3-2.2-0.6-3.4-0.9c-1.2-0.3-2.5-0.7-3.7-1c-1.3-0.3-2.4-0.9-3.4-1.5c-1-0.7-1.9-1.6-2.5-2.9c-0.6-1.2-1-2.7-1-4.4
				c0-2.9,1.1-5.2,3.2-7.2c2.1-1.9,5-2.9,8.7-2.9c3.7,0,6.6,1,8.8,3.1c2.2,2.1,3.3,4.7,3.4,7.8h-6.6c-0.1-1.5-0.6-2.7-1.6-3.6
				c-1-0.9-2.4-1.4-4.1-1.4c-1.6,0-2.8,0.3-3.8,1c-1,0.7-1.4,1.5-1.4,2.6c0,0.9,0.3,1.6,1,2.1s1.5,1,2.5,1.2c1,0.3,2.2,0.6,3.4,1
				c1.2,0.3,2.5,0.7,3.8,1.1s2.4,0.9,3.5,1.5c1,0.7,1.9,1.7,2.5,2.9s1,2.8,1,4.6c0,2.9-1.2,5.3-3.6,7.2c-2.4,1.9-5.5,2.8-9.4,2.8
				c-2.2,0-4.1-0.3-5.8-0.9c-1.7-0.6-3-1.5-3.9-2.6c-1-1.1-1.7-2.2-2.1-3.5c-0.5-1.3-0.7-2.6-0.8-4h6.6c0.1,1.4,0.7,2.6,1.7,3.6
				C115.3,38.9,116.9,39.4,118.9,39.4z"/>
			<path class="st3" d="M160.6,41.8c-2.6,2.4-5.9,3.6-9.9,3.6s-7.3-1.2-9.9-3.6c-2.6-2.4-4-5.9-4-10.5V12.1h6.7v19.4
				c0,2.4,0.6,4.3,1.8,5.7s3,2.1,5.4,2.1s4.2-0.7,5.4-2.1c1.2-1.4,1.8-3.3,1.8-5.7V12.1h6.7v19.2C164.5,35.9,163.2,39.4,160.6,41.8z
				"/>
			<path class="st3" d="M198.4,44.7h-7.8l-6.1-12.4h-6.4v12.4h-6.7V12.1h14.8c3.5,0,6.1,0.9,8.1,2.8c1.9,1.9,2.9,4.3,2.9,7.4
				c0,2.2-0.5,4.1-1.5,5.8c-1,1.6-2.4,2.8-4.3,3.6L198.4,44.7z M189.3,25.2c0.7-0.7,1.1-1.6,1.1-2.9c0-1.2-0.4-2.2-1.1-2.9
				c-0.7-0.7-1.8-1.1-3.1-1.1h-8.1v8h8.1C187.5,26.2,188.6,25.8,189.3,25.2z"/>
		</g>
	</g>
	<g class="st1">
		<path class="st0" d="M588,426.9c-1,0.9-2.2,1.3-3.7,1.3s-2.7-0.4-3.7-1.3c-1-0.9-1.5-2.2-1.5-3.9v-7.1h2.5v7.2
			c0,0.9,0.2,1.6,0.7,2.1c0.4,0.5,1.1,0.8,2,0.8c0.9,0,1.5-0.3,2-0.8c0.4-0.5,0.7-1.2,0.7-2.1v-7.2h2.5v7.1
			C589.5,424.7,589,426,588,426.9z"/>
		<path class="st0" d="M596.6,419.7l2.8-3.8h3l-4.3,5.9l4.5,6.2h-3.1l-3-4.1l-2.9,4.1h-3.1l4.5-6.2l-4.3-5.9h3.1L596.6,419.7z"/>
		<path class="st0" d="M602.9,428l4.9-12.1h2.4l-4.9,12.1H602.9z"/>
		<path class="st0" d="M620.6,426.9c-1,0.9-2.2,1.3-3.7,1.3s-2.7-0.4-3.7-1.3c-1-0.9-1.5-2.2-1.5-3.9v-7.1h2.5v7.2
			c0,0.9,0.2,1.6,0.7,2.1c0.4,0.5,1.1,0.8,2,0.8c0.9,0,1.5-0.3,2-0.8c0.4-0.5,0.7-1.2,0.7-2.1v-7.2h2.5v7.1
			C622.1,424.7,621.6,426,620.6,426.9z"/>
		<path class="st0" d="M627.1,415.9V428h-2.5v-12.1H627.1z"/>
		<path class="st0" d="M638.4,428H634v-12.1h4.3c2,0,3.6,0.6,4.7,1.7c1.1,1.1,1.7,2.6,1.7,4.4s-0.6,3.3-1.7,4.4
			C642,427.4,640.4,428,638.4,428z M641.2,424.7c0.6-0.7,0.9-1.6,0.9-2.8s-0.3-2.1-0.9-2.8c-0.6-0.7-1.6-1-2.9-1h-1.8v7.5h1.8
			C639.6,425.7,640.6,425.4,641.2,424.7z"/>
		<path class="st0" d="M655.4,425.7v2.3h-8.7v-12.1h8.7v2.3h-6.2v2.5h6v2.3h-6v2.7H655.4z"/>
		<path class="st0" d="M661.7,426c0.7,0,1.2-0.1,1.6-0.4c0.4-0.2,0.6-0.6,0.6-1c0-0.3-0.1-0.6-0.4-0.8s-0.5-0.4-0.9-0.5
			c-0.4-0.1-0.8-0.2-1.3-0.3c-0.5-0.1-0.9-0.3-1.4-0.4c-0.5-0.1-0.9-0.3-1.3-0.6c-0.4-0.2-0.7-0.6-0.9-1.1s-0.4-1-0.4-1.6
			c0-1.1,0.4-1.9,1.2-2.7c0.8-0.7,1.9-1.1,3.2-1.1c1.4,0,2.4,0.4,3.2,1.2c0.8,0.8,1.2,1.7,1.2,2.9h-2.4c0-0.5-0.2-1-0.6-1.3
			s-0.9-0.5-1.5-0.5c-0.6,0-1,0.1-1.4,0.4c-0.4,0.2-0.5,0.6-0.5,1c0,0.3,0.1,0.6,0.4,0.8c0.2,0.2,0.6,0.4,0.9,0.5
			c0.4,0.1,0.8,0.2,1.3,0.4c0.5,0.1,0.9,0.3,1.4,0.4s0.9,0.3,1.3,0.6c0.4,0.2,0.7,0.6,0.9,1.1c0.2,0.5,0.4,1,0.4,1.7
			c0,1.1-0.4,2-1.3,2.7c-0.9,0.7-2,1-3.5,1c-0.8,0-1.5-0.1-2.1-0.3c-0.6-0.2-1.1-0.5-1.4-0.9s-0.6-0.8-0.8-1.3
			c-0.2-0.5-0.3-1-0.3-1.5h2.4c0,0.5,0.2,1,0.6,1.3S660.9,426,661.7,426z"/>
		<path class="st0" d="M670.8,415.9V428h-2.5v-12.1H670.8z"/>
		<path class="st0" d="M679.8,423.5v-2.2h5.2c0,0.2,0,0.4,0,0.6c0,1.9-0.6,3.4-1.7,4.5s-2.6,1.7-4.3,1.7c-1.8,0-3.3-0.6-4.4-1.7
			c-1.2-1.1-1.7-2.7-1.7-4.5c0-1.9,0.6-3.4,1.8-4.5c1.2-1.2,2.6-1.7,4.4-1.7c1.5,0,2.7,0.4,3.8,1.2c1.1,0.8,1.7,1.9,2,3.3h-2.7
			c-0.2-0.7-0.6-1.2-1.1-1.6c-0.6-0.4-1.3-0.6-2-0.6c-1.1,0-2,0.4-2.6,1.1c-0.6,0.7-1,1.7-1,2.9c0,1.2,0.3,2.1,1,2.9
			c0.6,0.7,1.5,1.1,2.6,1.1c0.8,0,1.5-0.2,2.1-0.6c0.6-0.4,1-1,1.2-1.7H679.8z"/>
		<path class="st0" d="M689.4,420v8H687v-12.1h2.5l5.3,8v-8h2.4V428h-2.5L689.4,420z"/>
		<path class="st0" d="M708.4,425.7v2.3h-8.7v-12.1h8.7v2.3h-6.2v2.5h6v2.3h-6v2.7H708.4z"/>
		<path class="st0" d="M720.5,428h-2.9l-2.3-4.6H713v4.6h-2.5v-12.1h5.5c1.3,0,2.3,0.3,3,1c0.7,0.7,1.1,1.6,1.1,2.7
			c0,0.8-0.2,1.5-0.6,2.1c-0.4,0.6-0.9,1-1.6,1.3L720.5,428z M717.1,420.8c0.3-0.3,0.4-0.6,0.4-1.1s-0.1-0.8-0.4-1.1
			c-0.3-0.3-0.6-0.4-1.1-0.4h-3v2.9h3C716.5,421.1,716.9,421,717.1,420.8z"/>
	</g>
</g>
</svg>
